<?xml version="1.0" encoding="utf-8"?>
<svg viewBox="4.899 2.375 90.35 95.309" style="enable-background:new 0 0 100 100;" xmlns="http://www.w3.org/2000/svg">
  <g transform="matrix(0.9999999999999999, 0, 0, 0.9999999999999999, 0, 0)">
    <g>
      <path d="M5273.1,2400.1v-2c0-2.8-5-4-9.7-4s-9.7,1.3-9.7,4v2c0,1.8,0.7,3.6,2,4.9l5,4.9c0.3,0.3,0.4,0.6,0.4,1v6.4     c0,0.4,0.2,0.7,0.6,0.8l2.9,0.9c0.5,0.1,1-0.2,1-0.8v-7.2c0-0.4,0.2-0.7,0.4-1l5.1-5C5272.4,2403.7,5273.1,2401.9,5273.1,2400.1z      M5263.4,2400c-4.8,0-7.4-1.3-7.5-1.8v0c0.1-0.5,2.7-1.8,7.5-1.8c4.8,0,7.3,1.3,7.5,1.8C5270.7,2398.7,5268.2,2400,5263.4,2400z"/>
      <path d="M5268.4,2410.3c-0.6,0-1,0.4-1,1c0,0.6,0.4,1,1,1h4.3c0.6,0,1-0.4,1-1c0-0.6-0.4-1-1-1H5268.4z"/>
      <path d="M5272.7,2413.7h-4.3c-0.6,0-1,0.4-1,1c0,0.6,0.4,1,1,1h4.3c0.6,0,1-0.4,1-1C5273.7,2414.1,5273.3,2413.7,5272.7,2413.7z"/>
      <path d="M5272.7,2417h-4.3c-0.6,0-1,0.4-1,1c0,0.6,0.4,1,1,1h4.3c0.6,0,1-0.4,1-1C5273.7,2417.5,5273.3,2417,5272.7,2417z"/>
    </g>
    <g>
      <path d="M40.7,43c0,3.5-2.9,6.4-6.4,6.4v8c8,0,14.4-6.5,14.4-14.4V23.1H32.4v18.2h8.4V43z"/>
      <path d="M61.7,43c0,3.5-2.9,6.4-6.4,6.4v8c8,0,14.4-6.5,14.4-14.4V23.1H53.3v18.2h8.4V43z"/>
      <path d="M91,2.5H9c-2.2,0-4,1.8-4,4v65.1c0,2.2,1.8,4,4,4h15.1v17.9c0,1.6,0.9,3,2.3,3.6c0.5,0.3,1.1,0.4,1.7,0.4     c0.9,0,1.8-0.3,2.6-0.9l25-21H91c2.2,0,4-1.8,4-4V6.5C95,4.3,93.2,2.5,91,2.5z M87,67.6H54.3c-0.9,0-1.8,0.3-2.6,0.9L32.2,84.9     V71.6c0-2.2-1.8-4-4-4H13V10.5H87V67.6z"/>
    </g>
  </g>
</svg>